name C:\Users\Nicos\Documents\OpenSimProjects\SprintingProject\Study1\PredictiveResults\IC_pred_Sprinting_optimum_28-October-2023__16-43-06___IKTD_Plus_4_p02_maxVel_01.mot
datacolumns 38
datarows 15
range 0.16029624 0.17550242
endheader
                time	/jointset/ground_pelvis/pelvis_tilt/value	/jointset/ground_pelvis/pelvis_list/value	/jointset/ground_pelvis/pelvis_rotation/value	/jointset/ground_pelvis/pelvis_tx/value	/jointset/ground_pelvis/pelvis_ty/value	/jointset/ground_pelvis/pelvis_tz/value	/jointset/hip_r/hip_flexion_r/value	/jointset/hip_r/hip_adduction_r/value	/jointset/hip_r/hip_rotation_r/value	/jointset/knee_r/knee_angle_r/value	/jointset/ankle_r/ankle_angle_r/value	/jointset/subtalar_r/subtalar_angle_r/value	/jointset/mtp_r/mtp_angle_r/value	/jointset/hip_l/hip_flexion_l/value	/jointset/hip_l/hip_adduction_l/value	/jointset/hip_l/hip_rotation_l/value	/jointset/knee_l/knee_angle_l/value	/jointset/ankle_l/ankle_angle_l/value	/jointset/subtalar_l/subtalar_angle_l/value	/jointset/mtp_l/mtp_angle_l/value	/jointset/back/lumbar_extension/value	/jointset/back/lumbar_bending/value	/jointset/back/lumbar_rotation/value	/jointset/acromial_r/arm_flex_r/value	/jointset/acromial_r/arm_add_r/value	/jointset/acromial_r/arm_rot_r/value	/jointset/elbow_r/elbow_flex_r/value	/jointset/radioulnar_r/pro_sup_r/value	/jointset/radius_hand_r/wrist_flex_r/value	/jointset/radius_hand_r/wrist_dev_r/value	/jointset/acromial_l/arm_flex_l/value	/jointset/acromial_l/arm_add_l/value	/jointset/acromial_l/arm_rot_l/value	/jointset/elbow_l/elbow_flex_l/value	/jointset/radioulnar_l/pro_sup_l/value	/jointset/radius_hand_l/wrist_flex_l/value	/jointset/radius_hand_l/wrist_dev_l/value	
          0.16029624	         -9.40096941	          6.54273742	        -18.06065072	          1.24756452	          0.96386654	          0.30791224	         -2.81827797	        -15.22761657	          9.48194289	        -51.85245180	        -30.37534013	        -14.39235395	         -8.63978054	         83.73162723	        -12.28018226	         -0.56717983	       -102.66209676	         -7.66690150	        -23.49752733	         15.66675895	        -10.36777801	         -4.72081870	         10.99595906	         88.96213618	          0.87568089	         -0.09389516	        101.40473276	         81.04604081	         -7.21423354	          7.93276509	        -74.31516176	          0.85883865	         -0.00113056	         72.87597762	         51.37043496	        -12.27606970	          7.70959562	
          0.16094309	         -9.40706734	          6.54527284	        -18.01757036	          1.25496817	          0.96409303	          0.30804611	         -2.82830159	        -15.21479346	          9.54379464	        -52.28324701	        -30.46756528	        -14.28041453	         -8.53575147	         83.73238831	        -12.31989164	         -0.60118754	       -101.90681538	         -7.90064604	        -23.51870220	         15.66677795	        -10.41405993	         -4.78849720	         10.98363344	         88.97688802	          0.90727658	         -0.11972173	        101.36861304	         80.92624221	         -7.11336348	          7.91282125	        -74.21276860	          0.88842726	         -0.00000130	         72.31168567	         51.34994375	        -12.38966616	          7.68984058	
          0.16298687	         -9.42126149	          6.55682353	        -17.87622041	          1.27832601	          0.96484753	          0.30847708	         -2.84640415	        -15.16991694	          9.73065770	        -53.65750129	        -30.70522995	        -13.92266404	         -8.22197094	         83.66972651	        -12.43597392	         -0.73553434	        -99.47116912	         -8.64421908	        -23.58688312	         15.66670578	        -10.57088516	         -5.01318950	         10.94480201	         88.96369325	          0.96389255	         -0.23083729	        101.33026231	         80.53544330	         -6.79465291	          7.84980183	        -73.85469974	          0.94881585	         -0.00000280	         70.59340045	         51.30230112	        -12.74858872	          7.62821472	
          0.16446809	         -9.42207260	          6.56428952	        -17.76834072	          1.29522695	          0.96543742	          0.30879557	         -2.85509479	        -15.13119446	          9.85388466	        -54.66148443	        -30.82348398	        -13.69010953	         -8.01203254	         83.55836666	        -12.51038778	         -0.85488080	        -97.66339573	         -9.18292857	        -23.63258079	         15.66668128	        -10.70077584	         -5.18274718	         10.91646218	         88.89861837	          0.96389404	         -0.34059591	        101.37085191	         80.24201839	         -6.56367222	          7.80413504	        -73.56537860	          0.96389310	         -0.01222518	         69.41475360	         51.28455631	        -13.00871037	          7.58315737	
          0.16446809	         -9.42207260	          6.56428952	        -17.76834072	          1.29522695	          0.96543742	          0.30879557	         -2.85509479	        -15.13119446	          9.85388466	        -54.66148443	        -30.82348398	        -13.69010953	         -8.01203254	         83.55836666	        -12.51038778	         -0.85488080	        -97.66339573	         -9.18292857	        -23.63258079	         15.66668128	        -10.70077584	         -5.18274718	         10.91646218	         88.89861837	          0.96389404	         -0.34059591	        101.37085191	         80.24201839	         -6.56367222	          7.80413504	        -73.56537860	          0.96389310	         -0.01222518	         69.41475360	         51.28455631	        -13.00871037	          7.58315737	
          0.16511494	         -9.41869913	          6.56629831	        -17.71960623	          1.30260181	          0.96570799	          0.30893573	         -2.85991567	        -15.11223862	          9.90339344	        -55.10087848	        -30.86038959	        -13.60253734	         -7.92608357	         83.49127328	        -12.53995889	         -0.91190672	        -96.86384587	         -9.41681316	        -23.65035127	         15.66672208	        -10.76337342	         -5.25769429	         10.90384630	         88.85595289	          0.95307744	         -0.39633812	        101.40538473	         80.11156839	         -6.46280203	          7.78419090	        -73.43183247	          0.96353929	         -0.02274922	         68.91865804	         51.28133001	        -13.12230672	          7.56321357	
          0.16715872	         -9.38928370	          6.56349226	        -17.55949660	          1.32588512	          0.96661961	          0.30938158	         -2.88590701	        -15.04208403	         10.04007853	        -56.48883295	        -30.92613794	        -13.40863096	         -7.68371738	         83.20262067	        -12.62182591	         -1.10809588	        -94.30189731	        -10.14559920	        -23.69341962	         15.66655740	        -10.98977546	         -5.49416995	         10.86311104	         88.66706934	          0.87568790	         -0.60144768	        101.56999060	         79.68918085	         -6.14409210	          7.72117380	        -72.98279269	          0.93992038	         -0.09102364	         67.42434613	         51.28886936	        -13.48122914	          7.50019686	
          0.16863994	         -9.34536237	          6.55086726	        -17.43880691	          1.34274719	          0.96733938	          0.30970621	         -2.92098348	        -14.98221472	         10.11997864	        -57.49126132	        -30.93408116	        -13.34744067	         -7.54507934	         82.91694990	        -12.66990907	         -1.26373116	        -92.41688705	        -10.65698143	        -23.70702694	         15.66639799	        -11.18635495	         -5.66362244	         10.83272133	         88.48227109	          0.77856959	         -0.76767951	        101.72975925	         79.37313827	         -5.91311025	          7.67550397	        -72.63259072	          0.90281441	         -0.17682955	         66.41080405	         51.31092440	        -13.74135037	          7.45452651	
          0.16863994	         -9.34536237	          6.55086726	        -17.43880691	          1.34274719	          0.96733938	          0.30970621	         -2.92098348	        -14.98221472	         10.11997864	        -57.49126132	        -30.93408116	        -13.34744067	         -7.54507934	         82.91694990	        -12.66990907	         -1.26373116	        -92.41688705	        -10.65698143	        -23.70702694	         15.66639799	        -11.18635495	         -5.66362244	         10.83272133	         88.48227109	          0.77856959	         -0.76767951	        101.72975925	         79.37313827	         -5.91311025	          7.67550397	        -72.63259072	          0.90281441	         -0.17682955	         66.41080405	         51.31092440	        -13.74135037	          7.45452651	
          0.16928679	         -9.31905398	          6.54212894	        -17.38522939	          1.35010888	          0.96767054	          0.30984804	         -2.94199830	        -14.95391314	         10.14983232	        -57.92735001	        -30.92916679	        -13.34108689	         -7.49661931	         82.77118549	        -12.68790578	         -1.33479994	        -91.58776041	        -10.87405857	        -23.70708665	         15.66683648	        -11.28204408	         -5.73673439	         10.81927020	         88.38977455	          0.72534070	         -0.84233558	        101.80721243	         79.23250575	         -5.81224004	          7.65556191	        -72.47318655	          0.88150408	         -0.22394324	         65.98597354	         51.32471812	        -13.85495304	          7.43462083	
          0.17133057	         -9.20236146	          6.50238179	        -17.21233893	          1.37336782	          0.96878937	          0.31029308	         -3.03711232	        -14.85969721	         10.22274143	        -59.29538276	        -30.88799171	        -13.38457644	         -7.40014424	         82.22271352	        -12.72965088	         -1.57155475	        -88.95016573	        -11.52629409	        -23.67865531	         15.66558231	        -11.62863084	         -5.96530486	         10.77455508	         88.05065249	          0.51394574	         -1.07566365	        102.08540022	         78.77603355	         -5.49353022	          7.59254679	        -71.94615721	          0.79561352	         -0.41912902	         64.71940675	         51.38575304	        -14.21380014	          7.37164222	
          0.17281179	         -9.08479922	          6.46355398	        -17.08598248	          1.39022768	          0.96966934	          0.31061266	         -3.13283114	        -14.78978293	         10.25841261	        -60.27695269	        -30.83538958	        -13.45040654	         -7.38765674	         81.74232445	        -12.74589384	         -1.75439613	        -87.02732189	        -11.96141477	        -23.62915284	         15.66346608	        -11.92205993	         -6.12981869	         10.74201806	         87.75889285	          0.31970771	         -1.23503077	        102.32594470	         78.43364706	         -5.26254812	          7.54687574	        -71.54065080	          0.71005079	         -0.58759541	         63.86987327	         51.44543246	        -14.47375129	          7.32596718	
          0.17281179	         -9.08479922	          6.46355398	        -17.08598248	          1.39022768	          0.96966934	          0.31061266	         -3.13283114	        -14.78978293	         10.25841261	        -60.27695269	        -30.83538958	        -13.45040654	         -7.38765674	         81.74232445	        -12.74589384	         -1.75439613	        -87.02732189	        -11.96141477	        -23.62915284	         15.66346608	        -11.92205993	         -6.12981869	         10.74201806	         87.75889285	          0.31970771	         -1.23503077	        102.32594470	         78.43364706	         -5.26254812	          7.54687574	        -71.54065080	          0.71005079	         -0.58759541	         63.86987327	         51.44543246	        -14.47375129	          7.32596718	
          0.17345863	         -9.02456532	          6.44430470	        -17.03115671	          1.39759217	          0.97007179	          0.31075146	         -3.18145344	        -14.75949055	         10.27031861	        -60.70289298	        -30.80683729	        -13.48189719	         -7.39793695	         81.51096947	        -12.74944389	         -1.83705707	        -86.18614215	        -12.14023616	        -23.59966021	         15.66319442	        -12.06130628	         -6.20158536	         10.72833995	         87.61899043	          0.22406663	         -1.30017102	        102.44298426	         78.28108963	         -5.16167798	          7.52693948	        -71.35686301	          0.66459950	         -0.66240904	         63.51586527	         51.47514210	        -14.58734800	          7.30616485	
          0.17550242	         -8.79877358	          6.37640775	        -16.86370192	          1.42087007	          0.97141384	          0.31119008	         -3.35910279	        -14.66758695	         10.29977675	        -62.03888433	        -30.69165814	        -13.55848462	         -7.48889699	         80.69606369	        -12.74920870	         -2.10951443	        -83.52884942	        -12.65557585	        -23.47453792	         15.66517914	        -12.54410203	         -6.43012726	         10.69134804	         87.12527622	         -0.12133393	         -1.48163020	        102.86707997	         77.78602713	         -4.84296805	          7.46393049	        -70.75103924	          0.48637902	         -0.89757391	         62.46814920	         51.58450618	        -14.94626946	          7.24329460	
